<svg width="91" height="92" viewBox="0 0 91 92" fill="none" xmlns="http://www.w3.org/2000/svg">
<g id="cdnlogo.com_openai 1" clip-path="url(#clip0_177_1244)">
<path id="Vector" d="M88.829 43.7474C89.8254 45.9712 90.4577 48.3484 90.7164 50.7735C90.9655 53.1986 90.841 55.6524 90.3236 58.0391C89.8158 60.4259 88.9344 62.7168 87.7081 64.8256C86.9033 66.2346 85.9548 67.5574 84.8626 68.7747C83.7799 69.9825 82.5728 71.0752 81.2602 72.0337C79.938 72.9923 78.5297 73.7974 77.0351 74.4588C75.55 75.1106 73.998 75.6091 72.4076 75.935C71.6603 78.2546 70.5489 80.4496 69.1118 82.4242C67.6842 84.3988 65.9501 86.1338 63.9765 87.562C62.0028 88.9998 59.8184 90.1117 57.4999 90.8593C55.1813 91.6166 52.7574 91.9904 50.3143 91.9904C48.6951 92 47.0664 91.8274 45.476 91.5015C43.8951 91.166 42.3431 90.658 40.858 89.9966C39.373 89.3353 37.9646 88.5109 36.6521 87.5524C35.3491 86.5938 34.1419 85.4915 33.0689 84.2742C30.6737 84.7918 28.221 84.9164 25.797 84.6672C23.3731 84.4084 20.9971 83.7758 18.7648 82.7789C16.542 81.7916 14.4821 80.4496 12.6714 78.8106C10.8606 77.1715 9.3181 75.2544 8.10134 73.1456C7.28698 71.7366 6.61632 70.2509 6.10854 68.7076C5.60076 67.1644 5.26543 65.5732 5.09298 63.9533C4.92052 62.343 4.9301 60.7135 5.10256 59.0935C5.27501 57.4832 5.6295 55.892 6.13728 54.3488C4.50855 52.5372 3.16724 50.4763 2.17084 48.2525C1.18402 46.0191 0.542107 43.6516 0.293006 41.2265C0.0343253 38.8014 0.168456 36.3475 0.676238 33.9608C1.18402 31.5741 2.06545 29.2832 3.29179 27.1744C4.09658 25.7653 5.04507 24.433 6.1277 23.2252C7.21033 22.0175 8.42709 20.9247 9.73966 19.9662C11.0522 19.0077 12.4702 18.1929 13.9552 17.5411C15.4498 16.8797 17.0019 16.3909 18.5923 16.065C19.3396 13.7357 20.451 11.5503 21.8785 9.57572C23.3156 7.60114 25.0497 5.86619 27.0234 4.42839C28.997 3.00018 31.1814 1.88828 33.5 1.13104C35.8185 0.383383 38.2425 -3.06685e-05 40.6856 0.00955466C42.3047 -3.06685e-05 43.9335 0.16292 45.5239 0.498406C47.1143 0.833893 48.6664 1.33233 50.1514 1.99372C51.6364 2.66469 53.0448 3.47944 54.3574 4.43798C55.6699 5.4061 56.8771 6.49882 57.9501 7.71616C60.3358 7.20814 62.7884 7.08353 65.2124 7.33275C67.6363 7.58197 70.0028 8.22418 72.2351 9.21147C74.4578 10.2083 76.5177 11.5407 78.3285 13.1798C80.1392 14.8093 81.6817 16.7168 82.8985 18.8351C83.7129 20.2346 84.3835 21.7203 84.8913 23.2732C85.3991 24.8164 85.744 26.4076 85.9069 28.0275C86.0793 29.6474 86.0793 31.2769 85.8973 32.8968C85.7248 34.5167 85.3704 36.1079 84.8626 37.6511C86.5009 39.4628 87.8326 41.514 88.829 43.7474ZM56.9058 84.6672C58.9945 83.8045 60.8915 82.5297 62.4914 80.9289C64.0914 79.3282 65.3657 77.4303 66.228 75.3311C67.0902 73.2415 67.5405 70.9985 67.5405 68.7364V47.3611C67.5341 47.3419 67.5277 47.3196 67.5214 47.294C67.515 47.2748 67.5054 47.2557 67.4926 47.2365C67.4798 47.2173 67.4639 47.2013 67.4447 47.1886C67.4255 47.1694 67.4064 47.1566 67.3872 47.1502L59.6555 42.6834V68.5063C59.6555 68.7651 59.6172 69.0335 59.5501 69.2827C59.4831 69.5415 59.3873 69.7812 59.2531 70.0112C59.119 70.2413 58.9657 70.4521 58.7741 70.6343C58.5878 70.82 58.3786 70.9811 58.1513 71.1135L39.8425 81.6861C39.6892 81.782 39.4305 81.9162 39.2964 81.9929C40.0533 82.6351 40.8772 83.2006 41.7395 83.6991C42.6113 84.1975 43.5119 84.6193 44.4508 84.9643C45.3897 85.2998 46.3574 85.5586 47.3346 85.7312C48.3215 85.9037 49.3179 85.99 50.3143 85.99C52.5753 85.99 54.8172 85.5395 56.9058 84.6672ZM13.3037 70.155C14.4438 72.12 15.948 73.8262 17.7396 75.2065C19.5408 76.5868 21.5815 77.5932 23.7659 78.1779C25.9503 78.7626 28.2306 78.916 30.4725 78.6189C32.7144 78.3217 34.8701 77.5932 36.8341 76.4622L55.3442 65.7745L55.3921 65.7266C55.4049 65.7138 55.4144 65.6946 55.4208 65.6691C55.4336 65.6499 55.4432 65.6307 55.4496 65.6116V56.6013L33.1072 69.532C32.8772 69.6662 32.6377 69.762 32.3886 69.8387C32.1299 69.9058 31.8713 69.9345 31.603 69.9345C31.3443 69.9345 31.0856 69.9058 30.827 69.8387C30.5779 69.762 30.3288 69.6662 30.0988 69.532L11.7899 58.9498C11.6271 58.8539 11.3876 58.7101 11.2534 58.6239C11.081 59.6111 10.9947 60.608 10.9947 61.6049C10.9947 62.6018 11.0905 63.5986 11.263 64.5859C11.4355 65.5636 11.7037 66.5317 12.039 67.4711C12.384 68.4105 12.8055 69.3115 13.3037 70.1742V70.155ZM8.49416 30.1842C7.36362 32.1492 6.63548 34.3155 6.33848 36.5584C6.04148 38.8014 6.19477 41.0731 6.7792 43.2682C7.36362 45.4536 8.36961 47.4953 9.74924 49.2973C11.1289 51.0898 12.8438 52.5947 14.7983 53.7257L33.2988 64.423C33.318 64.4294 33.3403 64.4358 33.3659 64.4421H33.4329C33.4585 64.4421 33.4808 64.4358 33.5 64.423C33.5192 64.4166 33.5383 64.407 33.5575 64.3942L41.3179 59.9083L18.9755 47.0064C18.7552 46.8722 18.5444 46.7093 18.3528 46.5272C18.1671 46.3408 18.0061 46.1314 17.8737 45.9041C17.7492 45.6741 17.6438 45.4344 17.5767 45.1756C17.5097 44.9264 17.4713 44.6676 17.4809 44.3992V22.6309C16.542 22.976 15.6318 23.3978 14.7696 23.8962C13.9073 24.4042 13.0929 24.9793 12.3265 25.6216C11.5696 26.2638 10.8606 26.9731 10.2187 27.7399C9.57678 28.4972 9.01152 29.3215 8.51332 30.1842H8.49416ZM72.0435 44.9839C72.2734 45.1181 72.4842 45.2715 72.6758 45.4632C72.8578 45.6453 73.0207 45.8562 73.1549 46.0862C73.2794 46.3163 73.3848 46.5655 73.4519 46.8147C73.5093 47.0735 73.5477 47.3323 73.5381 47.6007V69.369C76.6135 68.2379 79.2961 66.2538 81.2794 63.6466C83.2722 61.0394 84.4698 57.9241 84.7476 54.6651C85.0254 51.4061 84.3739 48.1279 82.8602 45.2236C81.3464 42.3192 79.0375 39.9037 76.2015 38.2742L57.7011 27.577C57.6819 27.5706 57.6595 27.5642 57.634 27.5578H57.5669C57.5478 27.5642 57.5254 27.5706 57.4999 27.577C57.4807 27.5834 57.4615 27.5929 57.4424 27.6057L49.7203 32.0725L72.0626 44.9839H72.0435ZM79.756 33.3857H79.7464V33.3953L79.756 33.3857ZM79.7464 33.3761C80.3021 30.1554 79.9285 26.8389 78.6638 23.8195C77.4087 20.8001 75.3105 18.2025 72.6279 16.3238C69.9453 14.4546 66.7836 13.3811 63.5166 13.2373C60.24 13.1031 57.0017 13.8987 54.1657 15.5282L35.6653 26.2158C35.6461 26.2286 35.6301 26.2446 35.6174 26.2638L35.579 26.3213C35.5726 26.3405 35.5663 26.3628 35.5599 26.3884C35.5535 26.4076 35.5503 26.4299 35.5503 26.4555V35.389L57.8927 22.4776C58.1226 22.3434 58.3717 22.2475 58.6208 22.1708C58.8795 22.1037 59.1382 22.075 59.3968 22.075C59.6651 22.075 59.9238 22.1037 60.1825 22.1708C60.4316 22.2475 60.6711 22.3434 60.901 22.4776L79.2099 33.0598C79.3728 33.1556 79.6123 33.2898 79.7464 33.3761ZM31.3347 23.484C31.3347 23.2252 31.3731 22.9664 31.4401 22.7076C31.5072 22.4584 31.603 22.2092 31.7371 21.9791C31.8713 21.7587 32.0246 21.5478 32.2162 21.3561C32.3982 21.174 32.609 21.011 32.8389 20.8864L51.1478 10.3138C51.3203 10.2083 51.5598 10.0742 51.6939 10.0071C49.1837 7.90787 46.1179 6.56592 42.87 6.15375C39.6221 5.732 36.3263 6.2496 33.3659 7.63948C30.3958 9.02935 27.8857 11.2436 26.1324 14.0041C24.3791 16.7743 23.4498 19.9758 23.4498 23.254V44.6293C23.4561 44.6548 23.4625 44.6772 23.4689 44.6964C23.4753 44.7155 23.4849 44.7347 23.4977 44.7539C23.5104 44.773 23.5264 44.7922 23.5456 44.8114C23.5583 44.8242 23.5775 44.837 23.603 44.8497L31.3347 49.3165V23.484ZM35.5311 51.732L45.4856 57.4832L55.44 51.732V40.2392L45.4951 34.488L35.5407 40.2392L35.5311 51.732Z" fill="black"/>
</g>
<defs>
<clipPath id="clip0_177_1244">
<rect width="91" height="92" fill="white"/>
</clipPath>
</defs>
</svg>
