<svg xmlns="http://www.w3.org/2000/svg" width="20" height="20" viewBox="0 0 20 20" fill="none">
<path d="M10.982 9.97663L16.7437 4.24486C17.0162 3.9738 17.0175 3.53456 16.7465 3.2621C16.4747 2.98897 16.0362 2.98827 15.7637 3.25933L10.0007 8.9918L4.28767 3.26142C4.01731 2.99037 3.57737 2.98897 3.30491 3.26002C3.03316 3.53108 3.03248 3.97102 3.30351 4.24348L9.01516 9.97247L3.25626 15.7008C2.98381 15.9718 2.98243 16.4111 3.25349 16.6835C3.38901 16.8198 3.56763 16.8885 3.74625 16.8885C3.92347 16.8885 4.10071 16.8211 4.23624 16.6863L9.99651 10.9566L15.7616 16.7391C15.8972 16.8754 16.0751 16.9435 16.2537 16.9435C16.4316 16.9435 16.6089 16.8754 16.7444 16.7405C17.0162 16.4695 17.0169 16.0302 16.7458 15.7578L10.982 9.97663Z" fill="white"/>
</svg>