<svg width="16" height="16" viewBox="0 0 16 16" fill="none" xmlns="http://www.w3.org/2000/svg">
<g id="link">
<path id="Vector" d="M6.66699 8.62501C6.95329 8.98384 7.31856 9.28075 7.73803 9.4956C8.15749 9.71044 8.62133 9.83821 9.09809 9.87022C9.57485 9.90223 10.0534 9.83774 10.5012 9.68112C10.9491 9.52451 11.3557 9.27943 11.6937 8.96251L13.6937 7.08751C14.3009 6.49813 14.6368 5.70874 14.6292 4.88938C14.6216 4.07002 14.2711 3.28623 13.6531 2.70683C13.035 2.12743 12.199 1.79877 11.325 1.79165C10.451 1.78453 9.609 2.09951 8.98033 2.66876L7.83366 3.73751" stroke="black" stroke-linecap="round" stroke-linejoin="round"/>
<path id="Vector_2" d="M9.33347 7.37499C9.04716 7.01616 8.68189 6.71925 8.26243 6.5044C7.84297 6.28955 7.37913 6.16179 6.90237 6.12978C6.4256 6.09777 5.94707 6.16226 5.49924 6.31887C5.0514 6.47549 4.64472 6.72057 4.3068 7.03749L2.3068 8.91249C1.69961 9.50187 1.36363 10.2913 1.37122 11.1106C1.37881 11.93 1.72938 12.7138 2.3474 13.2932C2.96543 13.8726 3.80147 14.2012 4.67546 14.2083C5.54945 14.2155 6.39146 13.9005 7.02013 13.3312L8.16013 12.2625" stroke="black" stroke-linecap="round" stroke-linejoin="round"/>
</g>
</svg>
