<svg width="552" height="323" viewBox="0 0 552 323" fill="none" xmlns="http://www.w3.org/2000/svg">
<path d="M9.40918 36.8467H539.455" stroke="#B7B7B7" stroke-opacity="0.42" stroke-width="0.5"/>
<path d="M9.40918 93.2939H539.455" stroke="#B7B7B7" stroke-opacity="0.42" stroke-width="0.5"/>
<path d="M9.40918 149.74H539.455" stroke="#B7B7B7" stroke-opacity="0.42" stroke-width="0.5"/>
<path d="M9.40918 206.187H539.455" stroke="#B7B7B7" stroke-opacity="0.42" stroke-width="0.5"/>
<path d="M9.40918 259.498H539.455" stroke="#B7B7B7" stroke-opacity="0.42" stroke-width="0.5"/>
<path d="M238.364 78.1638C238.364 71.2361 232.747 65.6201 225.818 65.6201C218.89 65.6201 213.273 71.2361 213.273 78.1638V307.321C213.273 314.248 218.89 319.864 225.818 319.864C232.747 319.864 238.364 314.248 238.364 307.321V78.1638Z" fill="url(#paint0_linear_286_1333)"/>
<path opacity="0.8" d="M326.182 185.894C326.182 178.967 320.565 173.351 313.636 173.351C306.708 173.351 301.091 178.967 301.091 185.894V307.321C301.091 314.248 306.708 319.864 313.636 319.864C320.565 319.864 326.182 314.248 326.182 307.321V185.894Z" fill="url(#paint1_linear_286_1333)"/>
<path d="M414 198.822C414 191.894 408.383 186.278 401.455 186.278C394.526 186.278 388.909 191.894 388.909 198.822V307.321C388.909 314.248 394.526 319.864 401.455 319.864C408.383 319.864 414 314.248 414 307.321V198.822Z" fill="url(#paint2_linear_286_1333)"/>
<path d="M150.545 231.141C150.545 224.214 144.929 218.598 138 218.598C131.071 218.598 125.455 224.214 125.455 231.141V307.321C125.455 314.248 131.071 319.864 138 319.864C144.929 319.864 150.545 314.248 150.545 307.321V231.141Z" fill="url(#paint3_linear_286_1333)"/>
<path d="M386.503 157.306C388.103 157.306 389.307 158.002 390.135 159.432C390.85 160.636 391.208 162.254 391.208 164.286C391.208 166.318 390.85 167.936 390.135 169.141C389.307 170.552 388.103 171.267 386.503 171.267C384.885 171.267 383.681 170.552 382.871 169.141C382.156 167.936 381.799 166.318 381.799 164.286C381.799 162.254 382.156 160.636 382.871 159.432C383.681 158.002 384.885 157.306 386.503 157.306ZM386.503 158.623C385.299 158.623 384.433 159.262 383.906 160.561C383.53 161.464 383.342 162.706 383.342 164.286C383.342 165.848 383.53 167.09 383.906 168.012C384.433 169.291 385.299 169.95 386.503 169.95C387.708 169.95 388.573 169.291 389.1 168.012C389.477 167.09 389.684 165.848 389.684 164.286C389.684 162.706 389.477 161.464 389.1 160.561C388.573 159.262 387.708 158.623 386.503 158.623ZM394.627 168.764C394.928 168.764 395.21 168.877 395.436 169.103C395.662 169.329 395.774 169.592 395.774 169.931C395.774 170.251 395.662 170.514 395.436 170.74C395.21 170.966 394.928 171.079 394.627 171.079C394.288 171.079 394.024 170.966 393.817 170.74C393.592 170.514 393.479 170.251 393.479 169.931C393.479 169.592 393.592 169.329 393.817 169.103C394.024 168.877 394.288 168.764 394.627 168.764ZM404.33 157.569H405.779V166.695H407.962V167.955H405.779V171.003H404.312V167.955H397.556V166.488L404.33 157.569ZM404.255 159.582L398.854 166.695H404.312V159.582H404.255ZM414.223 157.306C416.707 157.306 418.137 158.491 418.513 160.899H416.989C416.688 159.357 415.766 158.604 414.204 158.604C413.15 158.604 412.322 159.112 411.72 160.166C411.118 161.144 410.835 162.405 410.835 163.929C410.835 164.004 410.835 164.173 410.854 164.418H410.929C411.268 163.722 411.739 163.176 412.378 162.8C412.981 162.405 413.677 162.217 414.467 162.217C415.747 162.217 416.782 162.63 417.572 163.458C418.344 164.286 418.739 165.34 418.739 166.657C418.739 167.974 418.306 169.084 417.459 169.95C416.594 170.815 415.521 171.267 414.204 171.267C412.567 171.267 411.343 170.646 410.515 169.442C409.725 168.294 409.349 166.695 409.349 164.644C409.349 162.499 409.763 160.749 410.609 159.413C411.494 158.002 412.698 157.306 414.223 157.306ZM414.166 163.496C413.282 163.496 412.548 163.797 411.964 164.399C411.381 165.001 411.099 165.754 411.099 166.695C411.099 167.635 411.362 168.407 411.927 169.009C412.491 169.649 413.225 169.969 414.166 169.969C415.069 169.969 415.803 169.649 416.368 169.047C416.932 168.407 417.215 167.617 417.215 166.657C417.215 165.697 416.932 164.945 416.387 164.38C415.822 163.778 415.088 163.496 414.166 163.496Z" fill="black"/>
<path d="M210.785 42.9199C212.366 42.9199 213.589 43.5785 214.454 44.9144C215.245 46.1562 215.64 47.812 215.64 49.9005C215.64 51.9702 215.245 53.6448 214.454 54.8866C213.589 56.2037 212.366 56.881 210.785 56.881C209.204 56.881 207.981 56.2037 207.115 54.8866C206.325 53.6448 205.93 51.989 205.93 49.9005C205.93 47.7931 206.325 46.1374 207.115 44.9144C207.981 43.5785 209.204 42.9199 210.785 42.9199ZM210.785 44.651C209.675 44.651 208.903 45.253 208.451 46.4761C208.113 47.3039 207.962 48.4517 207.962 49.9005C207.962 51.3305 208.113 52.4782 208.451 53.3249C208.903 54.5291 209.675 55.15 210.785 55.15C211.876 55.15 212.667 54.5291 213.118 53.3249C213.438 52.4782 213.607 51.3305 213.607 49.9005C213.607 48.4517 213.438 47.3039 213.118 46.4761C212.667 45.253 211.876 44.651 210.785 44.651ZM218.982 53.927C219.359 53.927 219.697 54.0587 219.98 54.3221C220.243 54.5855 220.394 54.9242 220.394 55.3382C220.394 55.7145 220.243 56.0532 219.98 56.3354C219.697 56.58 219.359 56.7117 218.982 56.7117C218.568 56.7117 218.248 56.58 218.004 56.3354C217.721 56.0532 217.59 55.7145 217.59 55.3382C217.59 54.9242 217.721 54.5855 218.004 54.3221C218.248 54.0587 218.568 53.927 218.982 53.927ZM227.195 42.9199C228.626 42.9199 229.755 43.2962 230.602 44.0489C231.354 44.7262 231.731 45.5729 231.731 46.5701C231.731 47.2663 231.58 47.8496 231.279 48.32C230.94 48.828 230.432 49.2043 229.755 49.4677V49.5242C230.395 49.6747 230.959 50.051 231.411 50.6531C231.938 51.2928 232.201 52.0266 232.201 52.8733C232.201 54.0587 231.768 55.0183 230.903 55.7709C230.018 56.5047 228.776 56.881 227.195 56.881C225.596 56.881 224.354 56.5047 223.488 55.7709C222.623 55.0183 222.19 54.0587 222.19 52.8733C222.19 52.0266 222.453 51.2928 222.98 50.6531C223.432 50.051 223.978 49.6747 224.636 49.5242V49.4677C223.959 49.2043 223.451 48.828 223.112 48.32C222.811 47.8496 222.66 47.2663 222.66 46.5701C222.66 45.5729 223.037 44.7262 223.789 44.0489C224.617 43.2962 225.765 42.9199 227.195 42.9199ZM227.195 44.5569C226.367 44.5569 225.709 44.7638 225.22 45.2154C224.787 45.5917 224.58 46.0809 224.58 46.6454C224.58 47.2851 224.749 47.7931 225.107 48.1695C225.539 48.621 226.236 48.8468 227.195 48.8468C228.136 48.8468 228.833 48.621 229.284 48.1695C229.623 47.7931 229.811 47.2851 229.811 46.6454C229.811 46.0809 229.585 45.5917 229.171 45.2154C228.682 44.7638 228.023 44.5569 227.195 44.5569ZM227.195 50.3709C226.217 50.3709 225.464 50.5967 224.975 51.0859C224.467 51.5374 224.222 52.1207 224.222 52.8733C224.222 53.5695 224.467 54.134 224.994 54.5667C225.502 54.9995 226.236 55.2253 227.195 55.2253C228.136 55.2253 228.889 54.9995 229.435 54.5667C229.924 54.134 230.169 53.5695 230.169 52.8733C230.169 52.1207 229.924 51.5374 229.435 51.1047C228.908 50.6155 228.174 50.3709 227.195 50.3709ZM238.479 42.9199C239.909 42.9199 241.038 43.2962 241.885 44.0489C242.638 44.7262 243.014 45.5729 243.014 46.5701C243.014 47.2663 242.864 47.8496 242.563 48.32C242.224 48.828 241.716 49.2043 241.038 49.4677V49.5242C241.678 49.6747 242.243 50.051 242.694 50.6531C243.221 51.2928 243.485 52.0266 243.485 52.8733C243.485 54.0587 243.052 55.0183 242.186 55.7709C241.302 56.5047 240.06 56.881 238.479 56.881C236.88 56.881 235.638 56.5047 234.772 55.7709C233.906 55.0183 233.474 54.0587 233.474 52.8733C233.474 52.0266 233.737 51.2928 234.264 50.6531C234.716 50.051 235.261 49.6747 235.92 49.5242V49.4677C235.242 49.2043 234.734 48.828 234.396 48.32C234.095 47.8496 233.944 47.2663 233.944 46.5701C233.944 45.5729 234.32 44.7262 235.073 44.0489C235.901 43.2962 237.049 42.9199 238.479 42.9199ZM238.479 44.5569C237.651 44.5569 236.993 44.7638 236.503 45.2154C236.07 45.5917 235.863 46.0809 235.863 46.6454C235.863 47.2851 236.033 47.7931 236.39 48.1695C236.823 48.621 237.519 48.8468 238.479 48.8468C239.42 48.8468 240.116 48.621 240.568 48.1695C240.907 47.7931 241.095 47.2851 241.095 46.6454C241.095 46.0809 240.869 45.5917 240.455 45.2154C239.966 44.7638 239.307 44.5569 238.479 44.5569ZM238.479 50.3709C237.501 50.3709 236.748 50.5967 236.259 51.0859C235.751 51.5374 235.506 52.1207 235.506 52.8733C235.506 53.5695 235.751 54.134 236.277 54.5667C236.786 54.9995 237.519 55.2253 238.479 55.2253C239.42 55.2253 240.173 54.9995 240.719 54.5667C241.208 54.134 241.452 53.5695 241.452 52.8733C241.452 52.1207 241.208 51.5374 240.719 51.1047C240.192 50.6155 239.458 50.3709 238.479 50.3709Z" fill="black"/>
<path d="M295.451 144.379C297.05 144.379 298.255 145.075 299.083 146.505C299.798 147.709 300.155 149.327 300.155 151.359C300.155 153.392 299.798 155.01 299.083 156.214C298.255 157.625 297.05 158.34 295.451 158.34C293.832 158.34 292.628 157.625 291.819 156.214C291.104 155.01 290.746 153.392 290.746 151.359C290.746 149.327 291.104 147.709 291.819 146.505C292.628 145.075 293.832 144.379 295.451 144.379ZM295.451 145.696C294.246 145.696 293.381 146.336 292.854 147.634C292.477 148.537 292.289 149.779 292.289 151.359C292.289 152.921 292.477 154.163 292.854 155.085C293.381 156.364 294.246 157.023 295.451 157.023C296.655 157.023 297.521 156.364 298.048 155.085C298.424 154.163 298.631 152.921 298.631 151.359C298.631 149.779 298.424 148.537 298.048 147.634C297.521 146.336 296.655 145.696 295.451 145.696ZM303.573 155.838C303.874 155.838 304.156 155.95 304.382 156.176C304.608 156.402 304.721 156.665 304.721 157.004C304.721 157.324 304.608 157.587 304.382 157.813C304.156 158.039 303.874 158.152 303.573 158.152C303.234 158.152 302.971 158.039 302.764 157.813C302.538 157.587 302.425 157.324 302.425 157.004C302.425 156.665 302.538 156.402 302.764 156.176C302.971 155.95 303.234 155.838 303.573 155.838ZM308.027 144.642H315.835V146.016H309.287L308.836 150.513H308.911C309.287 150.061 309.777 149.723 310.36 149.497C310.887 149.271 311.451 149.177 312.072 149.177C313.352 149.177 314.386 149.572 315.177 150.381C315.967 151.209 316.381 152.338 316.381 153.787C316.381 155.141 315.892 156.252 314.932 157.117C314.029 157.926 312.9 158.34 311.583 158.34C310.398 158.34 309.381 158.02 308.553 157.38C307.613 156.665 307.104 155.687 307.01 154.464H308.535C308.61 155.311 308.949 155.969 309.551 156.421C310.078 156.816 310.774 157.023 311.602 157.023C312.543 157.023 313.314 156.722 313.935 156.12C314.537 155.518 314.857 154.746 314.857 153.805C314.857 152.733 314.556 151.905 313.991 151.322C313.446 150.72 312.675 150.438 311.696 150.438C311.056 150.438 310.492 150.569 309.984 150.851C309.457 151.115 309.043 151.529 308.779 152.056H307.311L308.027 144.642ZM321.663 144.642H322.867V158.077H321.324V146.524C320.477 147.389 319.423 147.991 318.163 148.368V146.825C318.765 146.656 319.405 146.392 320.044 146.016C320.684 145.602 321.211 145.15 321.663 144.642ZM332.113 144.642H333.562V153.768H335.745V155.028H333.562V158.077H332.094V155.028H325.339V153.561L332.113 144.642ZM332.038 146.656L326.637 153.768H332.094V146.656H332.038Z" fill="black"/>
<path d="M116.651 193.935C118.25 193.935 119.455 194.631 120.283 196.061C120.998 197.265 121.355 198.883 121.355 200.915C121.355 202.947 120.998 204.565 120.283 205.77C119.455 207.181 118.25 207.896 116.651 207.896C115.032 207.896 113.828 207.181 113.019 205.77C112.304 204.565 111.946 202.947 111.946 200.915C111.946 198.883 112.304 197.265 113.019 196.061C113.828 194.631 115.032 193.935 116.651 193.935ZM116.651 195.252C115.446 195.252 114.581 195.891 114.054 197.19C113.678 198.093 113.489 199.335 113.489 200.915C113.489 202.477 113.678 203.719 114.054 204.641C114.581 205.92 115.446 206.579 116.651 206.579C117.855 206.579 118.721 205.92 119.248 204.641C119.624 203.719 119.831 202.477 119.831 200.915C119.831 199.335 119.624 198.093 119.248 197.19C118.721 195.891 117.855 195.252 116.651 195.252ZM124.773 205.393C125.074 205.393 125.356 205.506 125.582 205.732C125.808 205.958 125.921 206.221 125.921 206.56C125.921 206.88 125.808 207.143 125.582 207.369C125.356 207.595 125.074 207.708 124.773 207.708C124.434 207.708 124.171 207.595 123.964 207.369C123.738 207.143 123.625 206.88 123.625 206.56C123.625 206.221 123.738 205.958 123.964 205.732C124.171 205.506 124.434 205.393 124.773 205.393ZM133.028 193.935C134.308 193.935 135.361 194.254 136.152 194.913C136.923 195.572 137.319 196.456 137.319 197.585C137.319 199.09 136.585 200.106 135.117 200.595C135.907 200.84 136.509 201.216 136.923 201.743C137.375 202.27 137.601 202.928 137.601 203.719C137.601 204.942 137.168 205.939 136.321 206.71C135.456 207.501 134.326 207.896 132.934 207.896C131.654 207.896 130.619 207.557 129.81 206.917C128.85 206.127 128.323 204.979 128.211 203.474H129.772C129.81 204.528 130.168 205.337 130.826 205.882C131.391 206.334 132.087 206.579 132.934 206.579C133.894 206.579 134.665 206.296 135.249 205.751C135.775 205.224 136.058 204.565 136.058 203.775C136.058 202.966 135.794 202.345 135.267 201.894C134.74 201.442 134.025 201.235 133.084 201.235H131.993V200.031H133.028C133.931 200.031 134.609 199.824 135.079 199.429C135.55 199.015 135.794 198.431 135.794 197.679C135.794 196.926 135.55 196.343 135.098 195.929C134.609 195.477 133.912 195.27 133.047 195.27C132.144 195.27 131.447 195.496 130.939 195.985C130.412 196.475 130.111 197.171 130.017 198.074H128.493C128.606 196.776 129.095 195.76 129.923 195.026C130.713 194.292 131.748 193.935 133.028 193.935ZM144.18 193.935C145.572 193.935 146.682 194.292 147.473 195.026C148.188 195.684 148.564 196.512 148.564 197.491C148.564 198.206 148.395 198.808 148.056 199.297C147.68 199.824 147.153 200.219 146.457 200.464V200.501C147.153 200.671 147.755 201.066 148.244 201.668C148.771 202.307 149.035 203.06 149.035 203.926C149.035 205.111 148.621 206.071 147.793 206.786C146.927 207.519 145.723 207.896 144.18 207.896C142.618 207.896 141.413 207.519 140.567 206.786C139.739 206.071 139.325 205.111 139.325 203.926C139.325 203.06 139.588 202.307 140.115 201.668C140.604 201.066 141.188 200.671 141.903 200.501V200.464C141.188 200.219 140.661 199.824 140.303 199.297C139.964 198.808 139.795 198.206 139.795 197.491C139.795 196.512 140.153 195.684 140.886 195.026C141.677 194.292 142.768 193.935 144.18 193.935ZM144.18 195.195C143.22 195.195 142.467 195.44 141.94 195.929C141.47 196.343 141.244 196.889 141.244 197.547C141.244 198.225 141.451 198.789 141.865 199.203C142.354 199.692 143.126 199.956 144.18 199.956C145.215 199.956 145.986 199.692 146.494 199.203C146.908 198.789 147.115 198.225 147.115 197.547C147.115 196.889 146.871 196.343 146.419 195.929C145.873 195.44 145.121 195.195 144.18 195.195ZM144.18 201.16C143.088 201.16 142.26 201.423 141.677 201.969C141.112 202.458 140.849 203.117 140.849 203.926C140.849 204.716 141.112 205.374 141.677 205.864C142.241 206.372 143.088 206.635 144.18 206.635C145.271 206.635 146.099 206.372 146.701 205.845C147.228 205.356 147.51 204.716 147.51 203.926C147.51 203.117 147.228 202.458 146.701 201.969C146.099 201.423 145.252 201.16 144.18 201.16ZM155.463 193.935C156.856 193.935 157.966 194.292 158.757 195.026C159.472 195.684 159.848 196.512 159.848 197.491C159.848 198.206 159.679 198.808 159.34 199.297C158.964 199.824 158.437 200.219 157.74 200.464V200.501C158.437 200.671 159.039 201.066 159.528 201.668C160.055 202.307 160.318 203.06 160.318 203.926C160.318 205.111 159.904 206.071 159.076 206.786C158.211 207.519 157.006 207.896 155.463 207.896C153.901 207.896 152.697 207.519 151.85 206.786C151.022 206.071 150.608 205.111 150.608 203.926C150.608 203.06 150.872 202.307 151.399 201.668C151.888 201.066 152.471 200.671 153.186 200.501V200.464C152.471 200.219 151.944 199.824 151.587 199.297C151.248 198.808 151.079 198.206 151.079 197.491C151.079 196.512 151.436 195.684 152.17 195.026C152.961 194.292 154.052 193.935 155.463 193.935ZM155.463 195.195C154.504 195.195 153.751 195.44 153.224 195.929C152.754 196.343 152.528 196.889 152.528 197.547C152.528 198.225 152.735 198.789 153.149 199.203C153.638 199.692 154.41 199.956 155.463 199.956C156.498 199.956 157.27 199.692 157.778 199.203C158.192 198.789 158.399 198.225 158.399 197.547C158.399 196.889 158.154 196.343 157.703 195.929C157.157 195.44 156.404 195.195 155.463 195.195ZM155.463 201.16C154.372 201.16 153.544 201.423 152.961 201.969C152.396 202.458 152.133 203.117 152.133 203.926C152.133 204.716 152.396 205.374 152.961 205.864C153.525 206.372 154.372 206.635 155.463 206.635C156.555 206.635 157.383 206.372 157.985 205.845C158.512 205.356 158.794 204.716 158.794 203.926C158.794 203.117 158.512 202.458 157.985 201.969C157.383 201.423 156.536 201.16 155.463 201.16Z" fill="black"/>
<path d="M82.8647 286.756L88.0645 284.196C89.2632 283.606 90.3773 283.39 91.4176 283.563C92.4852 283.744 93.3841 284.34 94.0804 285.368C94.5022 285.992 94.6857 286.628 94.6415 287.295C94.5737 287.993 94.2444 288.57 93.6579 289.067L93.6789 289.098C94.9852 288.767 96.0801 289.121 96.9746 290.176L98.3207 291.798C98.8524 292.451 99.441 292.888 100.07 293.119L98.5673 293.858C98.0441 293.618 97.5483 293.218 97.0756 292.619L95.9217 291.214C95.4111 290.593 94.8309 290.234 94.2021 290.17C93.6071 290.089 92.9485 290.247 92.1888 290.621L88.5425 292.416L91.7808 297.2L90.3964 297.882L82.8647 286.756ZM84.9981 287.181L87.7935 291.31L91.4399 289.515C92.3177 289.082 92.8729 288.539 93.0924 287.932C93.2718 287.366 93.1539 286.76 92.7107 286.105C92.2465 285.42 91.6792 285.013 91.0522 284.886C90.3814 284.759 89.5731 284.929 88.6447 285.386L84.9981 287.181ZM93.4631 281.538L95.1681 280.698L101.359 283.426L101.702 277.482L103.407 276.642L102.872 284.031L111.259 287.609L109.554 288.449L102.73 285.452L102.379 291.982L100.674 292.821L101.201 284.854L93.4631 281.538ZM105.023 275.847L106.475 275.132L119.424 280.826L119.474 280.801L113.345 271.749L114.73 271.067L122.262 282.192L120.844 282.89L107.797 277.119L107.747 277.144L113.939 286.29L112.554 286.972L105.023 275.847ZM122.88 267.054L124.247 266.38L131.779 277.506L130.412 278.179L122.88 267.054ZM126.785 265.131L132.17 262.48C133.285 261.931 134.348 261.74 135.344 261.914C136.323 262.097 137.108 262.625 137.699 263.497C138.121 264.12 138.304 264.757 138.255 265.384C138.159 265.972 137.869 266.509 137.388 266.995C138.266 266.729 139.085 266.741 139.84 266.993C140.595 267.244 141.232 267.719 141.739 268.467C142.477 269.558 142.604 270.576 142.135 271.513C141.721 272.299 140.901 273.015 139.668 273.621L134.316 276.256L126.785 265.131ZM128.897 265.525L131.461 269.311L135.124 267.507C135.968 267.092 136.493 266.604 136.721 266.077C136.939 265.533 136.848 264.934 136.416 264.295C135.994 263.672 135.458 263.312 134.808 263.217C134.158 263.121 133.421 263.297 132.577 263.713L128.897 265.525ZM132.178 270.371L134.973 274.5L138.822 272.604C139.666 272.189 140.219 271.709 140.536 271.179C140.895 270.545 140.829 269.85 140.344 269.133C139.859 268.417 139.23 268.02 138.492 267.926C137.77 267.825 136.955 268.018 136.027 268.475L132.178 270.371ZM138.21 259.506L139.932 258.658L150.847 265.936L150.897 265.911L148.947 254.219L150.669 253.371L158.201 264.496L156.816 265.178L150.825 256.328L150.774 256.353L152.596 267.256L151.347 267.871L141.185 261.074L141.135 261.099L147.126 269.949L145.742 270.631L138.21 259.506Z" fill="#4F4C4C"/>
<path d="M148.401 296.847L153.922 294.129C155.12 293.538 156.245 293.338 157.279 293.535C158.241 293.726 159.015 294.238 159.585 295.08C160.007 295.703 160.197 296.316 160.171 296.91C160.125 297.473 159.869 297.994 159.409 298.511C160.298 298.261 161.089 298.266 161.8 298.518C162.484 298.763 163.098 299.271 163.604 300.019C164.363 301.141 164.5 302.174 164.032 303.111C163.618 303.897 162.753 304.614 161.47 305.246L155.933 307.972L148.401 296.847ZM151.389 297.37L153.541 300.549L156.563 299.061C157.407 298.645 157.903 298.214 158.088 297.79C158.247 297.359 158.148 296.847 157.757 296.27C157.399 295.741 156.949 295.443 156.453 295.375C155.913 295.309 155.255 295.467 154.444 295.866L151.389 297.37ZM154.553 302.045L156.895 305.504L160.17 303.891C160.913 303.525 161.43 303.125 161.704 302.699C162.055 302.153 162.03 301.584 161.608 300.961C161.175 300.321 160.667 299.97 160.089 299.88C159.494 299.799 158.757 299.975 157.879 300.407L154.553 302.045ZM163.484 289.42L165.729 288.315L177.87 297.171L175.759 298.21L172.774 295.961L167.726 298.447L168.517 301.776L166.407 302.815L163.484 289.42ZM167.304 296.66L171.171 294.756L165.978 290.81L165.911 290.843L167.304 296.66ZM171.515 285.466L173.49 284.494L181.022 295.619L179.047 296.591L171.515 285.466ZM179.817 289.855L188.343 285.657L189.334 287.122L180.809 291.319L179.817 289.855ZM191.158 275.503C192.577 274.805 193.99 274.566 195.366 274.803C196.687 275.025 197.822 275.671 198.767 276.701L196.843 277.649C196.144 277.016 195.414 276.669 194.625 276.601C193.853 276.524 193.055 276.709 192.211 277.125C190.945 277.748 190.263 278.603 190.17 279.729C190.065 280.737 190.453 281.876 191.318 283.153C192.204 284.462 193.177 285.334 194.225 285.752C195.356 286.193 196.599 286.1 197.916 285.452C198.777 285.028 199.349 284.476 199.636 283.836C199.925 283.133 199.898 282.294 199.564 281.337L201.489 280.389C202.105 281.831 202.166 283.151 201.666 284.374C201.201 285.517 200.319 286.408 199.019 287.048C197.01 288.037 195.107 288.185 193.347 287.514C191.811 286.941 190.482 285.809 189.343 284.126C188.225 282.474 187.746 280.903 187.944 279.433C188.156 277.751 189.234 276.451 191.158 275.503ZM198.121 272.075L200.045 271.128L202.999 275.49C203.014 274.88 203.198 274.354 203.523 273.903C203.808 273.492 204.234 273.158 204.791 272.884C205.855 272.36 206.838 272.25 207.752 272.569C208.61 272.873 209.412 273.559 210.14 274.634L213.516 279.62L211.591 280.567L208.426 275.893C207.962 275.207 207.452 274.752 206.922 274.535C206.321 274.312 205.704 274.366 205.046 274.69C204.438 274.989 204.113 275.44 204.071 276.043C204.012 276.654 204.212 277.282 204.676 277.968L207.725 282.471L205.8 283.419L198.121 272.075ZM213.657 268.519C215.092 267.812 216.484 267.708 217.856 268.238C219.097 268.707 220.221 269.67 221.202 271.119L214.669 274.336C215.243 275.051 215.852 275.519 216.488 275.725C217.123 275.932 217.8 275.869 218.492 275.528C219.083 275.237 219.471 274.88 219.674 274.448C219.824 274.104 219.856 273.652 219.786 273.083L221.711 272.136C222.014 272.983 222.042 273.822 221.771 274.62C221.406 275.61 220.655 276.395 219.49 276.969C218.19 277.609 216.907 277.742 215.652 277.384C214.324 277.019 213.213 276.175 212.305 274.835C211.493 273.635 211.189 272.455 211.417 271.262C211.601 270.071 212.357 269.159 213.657 268.519ZM214.688 269.943C214.047 270.258 213.663 270.655 213.523 271.181C213.39 271.683 213.481 272.282 213.795 272.979L218.286 270.768C217.231 269.542 216.039 269.278 214.688 269.943ZM223.809 263.52C225.092 262.888 226.299 262.875 227.447 263.473C227.515 262.775 227.705 262.225 228.017 261.822C228.279 261.444 228.705 261.109 229.296 260.818C230.191 260.377 231.113 260.277 232.1 260.538C233.054 260.817 233.843 261.384 234.444 262.272L238.021 267.554L236.096 268.502L232.731 263.531C232.299 262.892 231.83 262.5 231.353 262.361C230.849 262.214 230.281 262.307 229.606 262.639C229.133 262.872 228.85 263.219 228.762 263.72C228.646 264.213 228.8 264.74 229.201 265.332L232.534 270.256L230.609 271.203L227.255 266.248C226.421 265.017 225.436 264.692 224.288 265.257C223.731 265.532 223.419 265.935 223.355 266.506C223.271 267.047 223.418 267.597 223.777 268.127L227.047 272.957L225.123 273.905L219.669 265.849L221.594 264.901L222.152 265.727C222.404 264.669 222.965 263.935 223.809 263.52ZM237.205 253.122L239.349 252.067L248.797 259.506L248.847 259.481L246.017 248.783L248.161 247.727L251.405 260.964L249.024 262.136L237.205 253.122ZM253.351 244.881C254.516 244.308 255.689 244.145 256.871 244.394C258.036 244.652 258.945 245.264 259.62 246.261C260.274 247.227 260.46 248.299 260.221 249.476C260.065 250.176 259.622 251.184 258.936 252.498C258.21 253.853 257.91 254.873 258.02 255.567L263.962 252.641L265.049 254.246L256.641 258.386C255.871 257.248 255.595 256.075 255.836 254.835C255.958 254.151 256.423 253.009 257.222 251.431C257.661 250.55 257.917 249.863 258.033 249.369C258.187 248.566 258.056 247.841 257.634 247.218C257.223 246.61 256.732 246.25 256.193 246.12C255.638 245.999 255.02 246.116 254.328 246.457C253.585 246.823 253.186 247.331 253.131 247.981C253.055 248.6 253.306 249.37 253.863 250.259L251.888 251.232C251.061 249.977 250.774 248.788 251.034 247.642C251.279 246.442 252.051 245.521 253.351 244.881Z" fill="#363636"/>
<path d="M264.409 295.414L269.794 292.763C270.908 292.214 271.972 292.023 272.968 292.197C273.947 292.38 274.732 292.908 275.323 293.78C275.745 294.404 275.928 295.04 275.88 295.667C275.782 296.255 275.493 296.792 275.012 297.278C275.89 297.012 276.709 297.024 277.464 297.276C278.219 297.527 278.857 298.003 279.363 298.751C280.101 299.841 280.228 300.86 279.759 301.797C279.346 302.582 278.525 303.298 277.292 303.905L271.94 306.54L264.409 295.414ZM266.521 295.808L269.084 299.594L272.748 297.79C273.592 297.375 274.117 296.888 274.345 296.36C274.563 295.816 274.472 295.217 274.04 294.578C273.618 293.955 273.082 293.596 272.432 293.5C271.782 293.405 271.046 293.58 270.201 293.996L266.521 295.808ZM269.802 300.654L272.597 304.783L276.446 302.888C277.29 302.472 277.843 301.992 278.16 301.462C278.519 300.829 278.453 300.134 277.968 299.417C277.483 298.7 276.854 298.303 276.115 298.21C275.394 298.108 274.579 298.301 273.651 298.759L269.802 300.654ZM279.362 288.052L280.966 287.262L293.242 296.051L291.739 296.791L288.346 294.307L282.809 297.033L283.636 300.781L282.15 301.513L279.362 288.052ZM282.52 295.742L287.18 293.448L281.135 289.007L281.067 289.04L282.52 295.742ZM287.031 284.276L288.398 283.603L295.93 294.728L294.562 295.401L287.031 284.276ZM295.005 289.096L303.531 284.898L304.248 285.958L295.722 290.155L295.005 289.096ZM306.209 274.542C307.543 273.885 308.896 273.655 310.25 273.861C311.605 274.067 312.747 274.689 313.665 275.712L312.33 276.369C311.613 275.641 310.752 275.234 309.782 275.131C308.838 275.034 307.908 275.222 306.963 275.688C305.561 276.378 304.787 277.362 304.639 278.639C304.499 279.83 304.894 281.111 305.833 282.498C306.772 283.884 307.858 284.824 309.116 285.285C310.439 285.777 311.798 285.689 313.216 284.991C314.179 284.517 314.831 283.885 315.189 283.085C315.559 282.237 315.553 281.264 315.136 280.181L316.472 279.524C317.077 280.951 317.137 282.271 316.625 283.478C316.152 284.605 315.267 285.497 313.985 286.128C312.112 287.051 310.286 287.181 308.52 286.534C306.913 285.955 305.567 284.831 304.448 283.179C303.33 281.528 302.868 279.947 303.079 278.431C303.291 276.748 304.352 275.456 306.209 274.542ZM313.123 271.138L314.474 270.473L317.598 275.085C317.551 274.421 317.695 273.832 318.021 273.318C318.325 272.836 318.764 272.453 319.354 272.162C320.367 271.664 321.339 271.538 322.261 271.833C323.171 272.112 323.977 272.774 324.673 273.802L328.114 278.882L326.762 279.547L323.45 274.654C322.942 273.906 322.349 273.43 321.706 273.207C321.026 273.002 320.333 273.073 319.605 273.431C318.931 273.763 318.542 274.287 318.441 275.002C318.322 275.725 318.535 276.472 319.04 277.219L322.152 281.816L320.803 282.481L313.123 271.138ZM328.177 267.818C329.579 267.128 330.94 267.041 332.238 267.564C333.408 268.027 334.493 268.967 335.478 270.353L328.587 273.745C329.268 274.615 329.996 275.191 330.805 275.457C331.617 275.723 332.445 275.648 333.27 275.241C333.979 274.892 334.456 274.429 334.672 273.886C334.854 273.423 334.857 272.861 334.697 272.192L336.046 271.527C336.372 272.406 336.403 273.22 336.152 274.01C335.826 274.959 335.108 275.728 333.979 276.285C332.727 276.9 331.451 277.009 330.203 276.627C328.898 276.23 327.832 275.385 326.944 274.076C326.144 272.892 325.821 271.72 326.028 270.56C326.201 269.352 326.913 268.441 328.177 267.818ZM328.92 268.845C328.142 269.228 327.675 269.769 327.518 270.469C327.364 271.169 327.515 271.925 327.97 272.762L333.421 270.077C332.081 268.43 330.573 268.031 328.92 268.845ZM337.761 263.099C339.094 262.442 340.346 262.492 341.531 263.279C341.509 262.583 341.65 261.994 341.964 261.528C342.218 261.071 342.642 260.697 343.25 260.397C344.16 259.949 345.066 259.856 345.997 260.103C346.907 260.383 347.691 260.974 348.312 261.893L351.888 267.175L350.539 267.84L347.098 262.76C346.615 262.044 346.085 261.597 345.533 261.412C344.944 261.205 344.288 261.299 343.545 261.665C342.971 261.948 342.607 262.376 342.51 262.964C342.378 263.568 342.541 264.174 342.983 264.828L346.402 269.877L345.05 270.542L341.613 265.462C340.641 264.029 339.493 263.66 338.16 264.316C337.532 264.624 337.175 265.092 337.087 265.759C336.977 266.394 337.143 267.039 337.576 267.678L340.898 272.586L339.549 273.252L334.095 265.196L335.444 264.531L336.171 265.606C336.24 264.409 336.783 263.581 337.761 263.099ZM351.119 252.721L352.637 251.973L362.993 259.858L363.047 259.833L360.218 248.241L361.736 247.492L364.812 260.812L363.106 261.652L351.119 252.721ZM365.7 245.542L366.779 245.01L374.309 256.135L372.926 256.817L366.45 247.249C366.174 248.34 365.568 249.304 364.646 250.173L363.781 248.895C364.226 248.489 364.653 247.988 365.016 247.394C365.358 246.769 365.578 246.162 365.7 245.542Z" fill="#4F4C4C"/>
<path d="M365.936 285.432L375.812 280.57L376.562 281.676L372.305 283.771L379.089 293.79L377.722 294.463L370.938 284.444L366.685 286.539L365.936 285.432ZM377.873 279.555L384.879 276.105L385.651 277.242L379.773 280.135L381.89 284.058L381.959 284.025C382.041 283.485 382.292 282.988 382.687 282.544C383.035 282.124 383.487 281.797 384.045 281.522C385.193 280.957 386.344 280.827 387.504 281.148C388.68 281.485 389.684 282.237 390.496 283.436C391.255 284.558 391.437 285.694 391.064 286.834C390.707 287.903 389.926 288.745 388.743 289.327C387.68 289.85 386.588 290.034 385.488 289.87C384.242 289.694 383.239 289.108 382.467 288.137L383.835 287.464C384.377 288.132 385.052 288.527 385.845 288.635C386.538 288.73 387.278 288.593 388.022 288.228C388.865 287.812 389.389 287.222 389.609 286.449C389.813 285.685 389.665 284.904 389.138 284.125C388.536 283.237 387.802 282.684 386.971 282.451C386.143 282.193 385.293 282.3 384.415 282.733C383.841 283.015 383.408 283.374 383.11 283.832C382.784 284.283 382.646 284.808 382.706 285.361L381.388 286.01L377.873 279.555ZM392.965 275.925C394.047 275.393 395.066 275.203 396.038 275.346C397.042 275.497 397.942 276.03 398.761 276.937L397.425 277.593C396.885 277.028 396.299 276.694 395.665 276.59C395.016 276.494 394.364 276.629 393.67 276.969C392.827 277.385 392.353 278.014 392.265 278.847C392.181 279.656 392.472 280.551 393.137 281.533C393.802 282.515 394.549 283.186 395.402 283.514C396.236 283.85 397.111 283.814 397.989 283.382C399.476 282.65 399.862 281.525 399.128 280.039L400.476 279.374C400.972 280.502 401.085 281.504 400.771 282.367C400.461 283.205 399.777 283.894 398.698 284.426C397.381 285.074 396.092 285.168 394.818 284.715C393.611 284.292 392.598 283.461 391.764 282.23C390.929 280.999 390.594 279.836 390.757 278.716C390.92 277.493 391.666 276.565 392.965 275.925ZM396.355 270.164L397.707 269.499L400.828 274.111C400.784 273.447 400.925 272.858 401.251 272.344C401.555 271.862 401.994 271.479 402.587 271.188C403.6 270.69 404.572 270.564 405.491 270.859C406.401 271.138 407.21 271.8 407.906 272.828L411.344 277.908L409.992 278.573L406.68 273.68C406.175 272.932 405.582 272.455 404.936 272.233C404.256 272.028 403.562 272.099 402.838 272.457C402.161 272.789 401.772 273.313 401.671 274.028C401.552 274.751 401.765 275.498 402.273 276.245L405.385 280.842L404.033 281.507L396.355 270.164ZM411.41 266.844C412.812 266.154 414.17 266.067 415.468 266.59C416.638 267.053 417.726 267.993 418.708 269.379L411.821 272.77C412.501 273.641 413.229 274.217 414.038 274.483C414.847 274.749 415.675 274.674 416.503 274.267C417.212 273.918 417.686 273.455 417.905 272.912C418.084 272.449 418.087 271.887 417.927 271.218L419.279 270.553C419.602 271.432 419.636 272.246 419.382 273.036C419.059 273.985 418.341 274.754 417.209 275.311C415.961 275.926 414.684 276.035 413.433 275.653C412.131 275.256 411.062 274.411 410.177 273.102C409.374 271.918 409.054 270.746 409.258 269.585C409.431 268.378 410.143 267.467 411.41 266.844ZM412.15 267.871C411.372 268.254 410.908 268.795 410.751 269.495C410.594 270.195 410.748 270.951 411.2 271.788L416.654 269.103C415.314 267.456 413.806 267.057 412.15 267.871ZM420.994 262.125C422.327 261.468 423.576 261.518 424.761 262.305C424.742 261.609 424.884 261.02 425.197 260.554C425.451 260.097 425.871 259.723 426.48 259.423C427.393 258.975 428.296 258.882 429.23 259.129C430.14 259.408 430.921 260 431.545 260.919L435.121 266.201L433.769 266.866L430.331 261.786C429.845 261.07 429.318 260.623 428.766 260.438C428.174 260.23 427.518 260.325 426.775 260.691C426.201 260.974 425.837 261.402 425.74 261.99C425.611 262.594 425.774 263.2 426.216 263.854L429.632 268.902L428.283 269.568L424.843 264.488C423.874 263.055 422.723 262.686 421.39 263.342C420.765 263.65 420.408 264.118 420.317 264.784C420.207 265.42 420.373 266.065 420.806 266.704L424.131 271.612L422.779 272.277L417.325 264.222L418.677 263.557L419.404 264.632C419.473 263.435 420.013 262.607 420.994 262.125Z" fill="#4F4C4C"/>
<path d="M9.40918 319.864H548.864" stroke="#707070" stroke-opacity="0.97" stroke-linecap="round"/>
<path d="M24.7422 3.14258H31.5043C33.0631 3.14258 34.2925 3.4938 35.1926 4.2182C36.1147 4.96455 36.5977 6.06213 36.5977 7.51092C36.5977 8.38898 36.3562 9.15728 35.8732 9.83778C35.3463 10.5402 34.6438 10.9793 33.7436 11.1988V11.2427C35.2366 11.5719 36.0708 12.5159 36.2465 14.0964L36.488 16.511C36.5758 17.4769 36.8612 18.2452 37.3222 18.8159H35.3683C35.017 18.2891 34.7975 17.6086 34.7316 16.7305L34.534 14.6451C34.4462 13.7232 34.1169 13.0427 33.5461 12.6476C33.0191 12.2524 32.2727 12.0768 31.2846 12.0768H26.5425V18.8159H24.7422V3.14258ZM26.5425 4.70113V10.5183H31.2846C32.4264 10.5183 33.3265 10.2329 33.9412 9.70607C34.4901 9.20118 34.7755 8.49874 34.7755 7.57678C34.7755 6.61091 34.4901 5.88651 33.9632 5.42553C33.3924 4.9426 32.4922 4.70113 31.2846 4.70113H26.5425ZM43.5962 0.618164C44.5183 0.618164 45.2867 0.85963 45.8795 1.38647C46.4503 1.89135 46.7577 2.57184 46.7577 3.4499C46.7577 4.30601 46.4284 5.07431 45.8136 5.73285C45.4843 6.06213 44.8037 6.56701 43.7938 7.2475C42.6961 7.9719 42.0374 8.60849 41.8179 9.17923H46.7796V10.3646H40.1713C40.1713 9.44265 40.5006 8.60849 41.1593 7.8841C41.5325 7.44507 42.235 6.87433 43.2449 6.19383C43.9914 5.667 44.4964 5.29382 44.7159 5.07431C45.1989 4.56943 45.4404 4.02064 45.4404 3.4499C45.4404 2.90112 45.2648 2.48404 44.9354 2.22062C44.6061 1.9133 44.1451 1.78159 43.5743 1.78159C42.9595 1.78159 42.4765 1.97915 42.1472 2.39623C41.774 2.83526 41.5764 3.4499 41.5764 4.28406H40.2372C40.2372 3.14258 40.5665 2.24257 41.2032 1.58403C41.774 0.925484 42.5863 0.618164 43.5962 0.618164Z" fill="black"/>
<path d="M7.84072 319.864C7.84072 320.73 8.54282 321.432 9.4089 321.432C10.275 321.432 10.9771 320.73 10.9771 319.864H7.84072ZM9.4089 0L0.35498 15.6796H18.4628L9.4089 0ZM10.9771 319.864V14.1117H7.84072V319.864H10.9771Z" fill="#646363" fill-opacity="0.8"/>
<defs>
<linearGradient id="paint0_linear_286_1333" x1="226.884" y1="15.5351" x2="226.884" y2="407.344" gradientUnits="userSpaceOnUse">
<stop stop-color="#8200AF"/>
<stop offset="1" stop-color="#B7ECF8" stop-opacity="0"/>
</linearGradient>
<linearGradient id="paint1_linear_286_1333" x1="314.703" y1="144.488" x2="314.703" y2="370.274" gradientUnits="userSpaceOnUse">
<stop stop-color="#07A3C6"/>
<stop offset="1" stop-color="#B7ECF8" stop-opacity="0"/>
</linearGradient>
<linearGradient id="paint2_linear_286_1333" x1="402.521" y1="159.962" x2="402.521" y2="365.827" gradientUnits="userSpaceOnUse">
<stop stop-color="#07A3C6"/>
<stop offset="1" stop-color="#B7ECF8" stop-opacity="0"/>
</linearGradient>
<linearGradient id="paint3_linear_286_1333" x1="139.066" y1="198.648" x2="139.066" y2="354.708" gradientUnits="userSpaceOnUse">
<stop stop-color="#07A3C6"/>
<stop offset="1" stop-color="#B7ECF8" stop-opacity="0"/>
</linearGradient>
</defs>
</svg>
