<svg xmlns="http://www.w3.org/2000/svg" width="20" height="20" viewBox="0 0 20 20" fill="none">
<path d="M9.63875 10.9014C9.69667 10.9597 9.76556 11.006 9.84145 11.0376C9.91734 11.0692 9.99873 11.0854 10.0809 11.0854C10.1631 11.0854 10.2445 11.0692 10.3204 11.0376C10.3963 11.006 10.4652 10.9597 10.5231 10.9014L16.5456 4.87886C16.6037 4.82083 16.6497 4.75194 16.6811 4.67613C16.7125 4.60031 16.7287 4.51905 16.7287 4.43699C16.7287 4.35492 16.7125 4.27366 16.6811 4.19784C16.6497 4.12203 16.6037 4.05314 16.5456 3.99511C16.4876 3.93708 16.4187 3.89105 16.3429 3.85965C16.2671 3.82824 16.1858 3.81208 16.1038 3.81208C16.0217 3.81208 15.9404 3.82824 15.8646 3.85965C15.7888 3.89105 15.7199 3.93708 15.6619 3.99511L10.0812 9.57574L4.33562 3.83074C4.21843 3.71354 4.05949 3.64771 3.89375 3.64771C3.72801 3.64771 3.56907 3.71354 3.45187 3.83074C3.33468 3.94793 3.26884 4.10688 3.26884 4.27261C3.26884 4.35467 3.28501 4.43593 3.31641 4.51175C3.34782 4.58757 3.39385 4.65646 3.45187 4.71449L9.63875 10.9014Z" fill="white"/>
<path d="M15.6619 8.9956L10.0813 14.5762L4.33625 8.83122C4.21906 8.71403 4.06011 8.64819 3.89438 8.64819C3.72864 8.64819 3.56969 8.71403 3.4525 8.83122C3.33531 8.94842 3.26947 9.10736 3.26947 9.2731C3.26947 9.43883 3.33531 9.59778 3.4525 9.71497L9.63938 15.9018C9.6973 15.9602 9.76619 16.0065 9.84208 16.0381C9.91797 16.0697 9.99936 16.0859 10.0816 16.0859C10.1638 16.0859 10.2452 16.0697 10.3211 16.0381C10.3969 16.0065 10.4658 15.9602 10.5238 15.9018L16.5463 9.87935C16.6043 9.82128 16.6503 9.75235 16.6817 9.6765C16.7131 9.60064 16.7292 9.51935 16.7292 9.43725C16.7292 9.35516 16.713 9.27388 16.6815 9.19804C16.6501 9.12221 16.604 9.05331 16.5459 8.99529C16.4879 8.93726 16.4189 8.89124 16.3431 8.85985C16.2672 8.82846 16.1859 8.81232 16.1038 8.81235C16.0217 8.81238 15.9405 8.82857 15.8646 8.86002C15.7888 8.89146 15.7199 8.93753 15.6619 8.9956Z" fill="white"/>
</svg>